<svg width="24" height="32" viewBox="0 0 24 32" fill="none" xmlns="http://www.w3.org/2000/svg">
<g clip-path="url(#clip0_1_480)">
<path fill-rule="evenodd" clip-rule="evenodd" d="M8.25 13C8.25 12.5858 8.58579 12.25 9 12.25H15C15.4142 12.25 15.75 12.5858 15.75 13C15.75 13.4142 15.4142 13.75 15 13.75H9C8.58579 13.75 8.25 13.4142 8.25 13ZM9 16.75H15C15.4142 16.75 15.75 16.4142 15.75 16C15.75 15.5858 15.4142 15.25 15 15.25H9C8.58579 15.25 8.25 15.5858 8.25 16C8.25 16.4142 8.58579 16.75 9 16.75ZM12 18.25H9C8.58579 18.25 8.25 18.5858 8.25 19C8.25 19.4142 8.58579 19.75 9 19.75H12C12.4142 19.75 12.75 19.4142 12.75 19C12.75 18.5858 12.4142 18.25 12 18.25ZM21 8.5V18.6897C21.0013 19.0877 20.8429 19.4697 20.5603 19.75L15.75 24.5603C15.4697 24.8429 15.0877 25.0013 14.6897 25H4.5C3.67157 25 3 24.3284 3 23.5V8.5C3 7.67157 3.67157 7 4.5 7H19.5C20.3284 7 21 7.67157 21 8.5ZM4.5 23.5H14.25V19C14.25 18.5858 14.5858 18.25 15 18.25H19.5V8.5H4.5V23.5ZM15.75 19.75V22.4406L18.4397 19.75H15.75Z" fill="#9EA6BA"/>
</g>
<defs>
<clipPath id="clip0_1_480">
<rect width="24" height="24" fill="white" transform="translate(0 4)"/>
</clipPath>
</defs>
</svg>
