<svg width="40" height="40" viewBox="0 0 40 40" fill="none" xmlns="http://www.w3.org/2000/svg">
<rect width="40" height="40" rx="8" fill="#292E38"/>
<g clip-path="url(#clip0_1_761)">
<path fill-rule="evenodd" clip-rule="evenodd" d="M27.5 15.5H24.5V13.25C24.5 10.7647 22.4853 8.75 20 8.75C17.5147 8.75 15.5 10.7647 15.5 13.25V15.5H12.5C11.6716 15.5 11 16.1716 11 17V27.5C11 28.3284 11.6716 29 12.5 29H27.5C28.3284 29 29 28.3284 29 27.5V17C29 16.1716 28.3284 15.5 27.5 15.5ZM17 13.25C17 11.5931 18.3431 10.25 20 10.25C21.6569 10.25 23 11.5931 23 13.25V15.5H17V13.25ZM27.5 27.5H12.5V17H27.5V27.5ZM21.125 22.25C21.125 22.8713 20.6213 23.375 20 23.375C19.3787 23.375 18.875 22.8713 18.875 22.25C18.875 21.6287 19.3787 21.125 20 21.125C20.6213 21.125 21.125 21.6287 21.125 22.25Z" fill="white"/>
</g>
<defs>
<clipPath id="clip0_1_761">
<rect width="24" height="24" fill="white" transform="translate(8 8)"/>
</clipPath>
</defs>
</svg>
