<svg width="24" height="48" viewBox="0 0 24 48" fill="none" xmlns="http://www.w3.org/2000/svg">
<g clip-path="url(#clip0_1_180)">
<path fill-rule="evenodd" clip-rule="evenodd" d="M21.5306 32.4694L16.8366 27.7762C19.6629 24.383 19.3204 19.3669 16.0591 16.3893C12.7978 13.4118 7.77134 13.526 4.64867 16.6487C1.526 19.7713 1.41176 24.7978 4.38935 28.0591C7.36693 31.3204 12.383 31.6629 15.7762 28.8366L20.4694 33.5306C20.7624 33.8237 21.2376 33.8237 21.5306 33.5306C21.8237 33.2376 21.8237 32.7624 21.5306 32.4694ZM3.75 22.5C3.75 18.7721 6.77208 15.75 10.5 15.75C14.2279 15.75 17.25 18.7721 17.25 22.5C17.25 26.2279 14.2279 29.25 10.5 29.25C6.77379 29.2459 3.75413 26.2262 3.75 22.5Z" fill="white"/>
</g>
<defs>
<clipPath id="clip0_1_180">
<rect width="24" height="24" fill="white" transform="translate(0 12)"/>
</clipPath>
</defs>
</svg>
