<svg width="24" height="48" viewBox="0 0 24 48" fill="none" xmlns="http://www.w3.org/2000/svg">
<g clip-path="url(#clip0_1_737)">
<path fill-rule="evenodd" clip-rule="evenodd" d="M12 19.5C9.51472 19.5 7.5 21.5147 7.5 24C7.5 26.4853 9.51472 28.5 12 28.5C14.4853 28.5 16.5 26.4853 16.5 24C16.4974 21.5158 14.4842 19.5026 12 19.5ZM12 27C10.3431 27 9 25.6569 9 24C9 22.3431 10.3431 21 12 21C13.6569 21 15 22.3431 15 24C15 25.6569 13.6569 27 12 27ZM20.25 24.2025C20.2537 24.0675 20.2537 23.9325 20.25 23.7975L21.6488 22.05C21.7975 21.8639 21.849 21.6183 21.7875 21.3881C21.5582 20.5262 21.2152 19.6986 20.7675 18.9272C20.6486 18.7225 20.4401 18.5859 20.205 18.5588L17.9813 18.3113C17.8888 18.2138 17.795 18.12 17.7 18.03L17.4375 15.8006C17.4101 15.5653 17.2732 15.3568 17.0681 15.2381C16.2964 14.7913 15.4689 14.4486 14.6072 14.2191C14.3769 14.1578 14.1312 14.2097 13.9453 14.3588L12.2025 15.75C12.0675 15.75 11.9325 15.75 11.7975 15.75L10.05 14.3541C9.86393 14.2053 9.61827 14.1538 9.38813 14.2153C8.52633 14.445 7.6988 14.788 6.92719 15.2353C6.72249 15.3542 6.58592 15.5627 6.55875 15.7978L6.31125 18.0253C6.21375 18.1184 6.12 18.2122 6.03 18.3066L3.80063 18.5625C3.56531 18.5899 3.35677 18.7268 3.23813 18.9319C2.79126 19.7036 2.44859 20.5311 2.21906 21.3928C2.15784 21.6231 2.20969 21.8688 2.35875 22.0547L3.75 23.7975C3.75 23.9325 3.75 24.0675 3.75 24.2025L2.35406 25.95C2.20533 26.1361 2.15383 26.3817 2.21531 26.6119C2.44462 27.4738 2.78763 28.3014 3.23531 29.0728C3.35417 29.2775 3.56268 29.4141 3.79781 29.4412L6.02156 29.6887C6.11469 29.7862 6.20844 29.88 6.30281 29.97L6.5625 32.1994C6.58988 32.4347 6.72682 32.6432 6.93188 32.7619C7.70359 33.2087 8.5311 33.5514 9.39281 33.7809C9.6231 33.8422 9.86878 33.7903 10.0547 33.6413L11.7975 32.25C11.9325 32.2537 12.0675 32.2537 12.2025 32.25L13.95 33.6488C14.1361 33.7975 14.3817 33.849 14.6119 33.7875C15.4738 33.5582 16.3014 33.2152 17.0728 32.7675C17.2775 32.6486 17.4141 32.4401 17.4412 32.205L17.6887 29.9813C17.7862 29.8888 17.88 29.795 17.97 29.7L20.1994 29.4375C20.4347 29.4101 20.6432 29.2732 20.7619 29.0681C21.2087 28.2964 21.5514 27.4689 21.7809 26.6072C21.8422 26.3769 21.7903 26.1312 21.6413 25.9453L20.25 24.2025ZM18.7406 23.5931C18.7566 23.8641 18.7566 24.1359 18.7406 24.4069C18.7295 24.5924 18.7876 24.7755 18.9037 24.9206L20.2341 26.5828C20.0814 27.0679 19.886 27.5385 19.65 27.9891L17.5312 28.2291C17.3467 28.2495 17.1764 28.3377 17.0531 28.4766C16.8727 28.6795 16.6805 28.8717 16.4775 29.0522C16.3387 29.1754 16.2505 29.3458 16.23 29.5303L15.9947 31.6472C15.5442 31.8833 15.0736 32.0787 14.5884 32.2313L12.9253 30.9009C12.7922 30.7946 12.6269 30.7367 12.4566 30.7369H12.4116C12.1405 30.7528 11.8688 30.7528 11.5978 30.7369C11.4123 30.7257 11.2292 30.7838 11.0841 30.9L9.41719 32.2313C8.93206 32.0786 8.46146 31.8831 8.01094 31.6472L7.77094 29.5312C7.75046 29.3467 7.66227 29.1764 7.52344 29.0531C7.32048 28.8727 7.12827 28.6805 6.94781 28.4775C6.82456 28.3387 6.6542 28.2505 6.46969 28.23L4.35281 27.9937C4.11674 27.5433 3.92128 27.0727 3.76875 26.5875L5.09906 24.9244C5.21522 24.7793 5.27336 24.5962 5.26219 24.4106C5.24625 24.1396 5.24625 23.8679 5.26219 23.5969C5.27336 23.4113 5.21522 23.2282 5.09906 23.0831L3.76875 21.4172C3.9214 20.9321 4.11685 20.4615 4.35281 20.0109L6.46875 19.7709C6.65326 19.7505 6.82362 19.6623 6.94688 19.5234C7.12733 19.3205 7.31954 19.1283 7.5225 18.9478C7.66188 18.8245 7.75043 18.6537 7.77094 18.4688L8.00625 16.3528C8.45672 16.1167 8.92733 15.9213 9.4125 15.7687L11.0756 17.0991C11.2207 17.2152 11.4038 17.2734 11.5894 17.2622C11.8604 17.2463 12.1321 17.2463 12.4031 17.2622C12.5887 17.2734 12.7718 17.2152 12.9169 17.0991L14.5828 15.7687C15.0679 15.9214 15.5385 16.1169 15.9891 16.3528L16.2291 18.4688C16.2495 18.6533 16.3377 18.8236 16.4766 18.9469C16.6795 19.1273 16.8717 19.3195 17.0522 19.5225C17.1754 19.6613 17.3458 19.7495 17.5303 19.77L19.6472 20.0053C19.8833 20.4558 20.0787 20.9264 20.2313 21.4116L18.9009 23.0747C18.7837 23.221 18.7255 23.406 18.7378 23.5931H18.7406Z" fill="white"/>
</g>
<defs>
<clipPath id="clip0_1_737">
<rect width="24" height="24" fill="white" transform="translate(0 12)"/>
</clipPath>
</defs>
</svg>
